<svg xmlns="http://www.w3.org/2000/svg" width="600" height="460" viewBox="0 0 600 460" role="img"><title>Pie chart of grant allocation with labelled sector angles</title><rect width="600" height="460" rx="18" fill="#f3f6fc"/><g font-family="Arial,sans-serif" fill="#15243b"><text x="24" y="38" font-size="23" font-weight="700">Grant allocation — total ₹60,000</text><path d="M300 210 L300.000 65.000 A145 145 0 0 1 385.229 327.307 Z" fill="#315f9c" stroke="white" stroke-width="3"/><text x="392.25" y="180.03" text-anchor="middle" font-size="22" font-weight="700" fill="white">144°</text><path d="M300 210 L385.229 327.307 A145 145 0 0 1 182.693 295.229 Z" fill="#795a92" stroke="white" stroke-width="3"/><text x="284.83" y="305.81" text-anchor="middle" font-size="22" font-weight="700" fill="white">90°</text><path d="M300 210 L182.693 295.229 A145 145 0 0 1 182.693 124.771 Z" fill="#287d79" stroke="white" stroke-width="3"/><text x="203.00" y="210.00" text-anchor="middle" font-size="22" font-weight="700" fill="white">72°</text><path d="M300 210 L182.693 124.771 A145 145 0 0 1 300.000 65.000 Z" fill="#9d602f" stroke="white" stroke-width="3"/><text x="255.96" y="123.57" text-anchor="middle" font-size="22" font-weight="700" fill="white">54°</text><rect x="32" y="373" width="22" height="22" rx="3" fill="#315f9c"/><text x="64" y="392" font-size="20">Books: 144°</text><rect x="317" y="373" width="22" height="22" rx="3" fill="#795a92"/><text x="349" y="392" font-size="20">Repairs: 90°</text><rect x="32" y="419" width="22" height="22" rx="3" fill="#287d79"/><text x="64" y="438" font-size="20">Equipment: 72°</text><rect x="317" y="419" width="22" height="22" rx="3" fill="#9d602f"/><text x="349" y="438" font-size="20">Training: 54°</text></g></svg>